<svg style="display: none;"><symbol viewBox="0 0 24 24" id="shape-icon-close"><title>icon-close</title> <g> <path d="M24,3c0-0.6-0.4-1-1-1H1C0.4,2,0,2.4,0,3v2c0,0.6,0.4,1,1,1h22c0.6,0,1-0.4,1-1V3z"/> <path d="M24,11c0-0.6-0.4-1-1-1H1c-0.6,0-1,0.4-1,1v2c0,0.6,0.4,1,1,1h22c0.6,0,1-0.4,1-1V11z"/> <path d="M24,19c0-0.6-0.4-1-1-1H1c-0.6,0-1,0.4-1,1v2c0,0.6,0.4,1,1,1h22c0.6,0,1-0.4,1-1V19z"/> </g> </symbol><symbol viewBox="0 0 32 32" id="shape-icon-left"><title>icon-left</title> <g fill-rule="evenodd"> <path d="M24.416 30.584L23 32 7 16 23 0l1.416 1.416L9.832 16z"/> </g> </symbol><symbol viewBox="0 0 14 14" id="shape-icon-mail"><title>icon-mail</title> <g> <g> <path d="M7,9L5.268,7.484l-4.952,4.245C0.496,11.896,0.739,12,1.007,12h11.986
			c0.267,0,0.509-0.104,0.688-0.271L8.732,7.484L7,9z"/> <path d="M13.684,2.271C13.504,2.103,13.262,2,12.993,2H1.007C0.74,2,0.498,2.104,0.318,2.273L7,8
			L13.684,2.271z"/> <polygon points="0,2.878 0,11.186 4.833,7.079 		"/> <polygon points="9.167,7.079 14,11.186 14,2.875 		"/> </g> </g> </symbol><symbol viewBox="0 0 357 357" id="shape-icon-menu"><title>icon-menu</title> <g> <g id="icon-menu-close"> <polygon points="357,35.7 321.3,0 178.5,142.8 35.7,0 0,35.7 142.8,178.5 0,321.3 35.7,357 178.5,214.2 321.3,357 357,321.3 
			214.2,178.5 		"/> </g> </g> </symbol><symbol viewBox="0 0 578.106 578.106" id="shape-icon-phone"><title>icon-phone</title> <g> <g> <path d="M577.83,456.128c1.225,9.385-1.635,17.545-8.568,24.48l-81.396,80.781
			c-3.672,4.08-8.465,7.551-14.381,10.404c-5.916,2.857-11.729,4.693-17.439,5.508c-0.408,0-1.635,0.105-3.676,0.309
			c-2.037,0.203-4.689,0.307-7.953,0.307c-7.754,0-20.301-1.326-37.641-3.979s-38.555-9.182-63.645-19.584
			c-25.096-10.404-53.553-26.012-85.376-46.818c-31.823-20.805-65.688-49.367-101.592-85.68
			c-28.56-28.152-52.224-55.08-70.992-80.783c-18.768-25.705-33.864-49.471-45.288-71.299
			c-11.425-21.828-19.993-41.616-25.705-59.364S4.59,177.362,2.55,164.51s-2.856-22.95-2.448-30.294
			c0.408-7.344,0.612-11.424,0.612-12.24c0.816-5.712,2.652-11.526,5.508-17.442s6.324-10.71,10.404-14.382L98.022,8.756
			c5.712-5.712,12.24-8.568,19.584-8.568c5.304,0,9.996,1.53,14.076,4.59s7.548,6.834,10.404,11.322l65.484,124.236
			c3.672,6.528,4.692,13.668,3.06,21.42c-1.632,7.752-5.1,14.28-10.404,19.584l-29.988,29.988c-0.816,0.816-1.53,2.142-2.142,3.978
			s-0.918,3.366-0.918,4.59c1.632,8.568,5.304,18.36,11.016,29.376c4.896,9.792,12.444,21.726,22.644,35.802
			s24.684,30.293,43.452,48.653c18.36,18.77,34.68,33.354,48.96,43.76c14.277,10.4,26.215,18.053,35.803,22.949
			c9.588,4.896,16.932,7.854,22.031,8.871l7.648,1.531c0.816,0,2.145-0.307,3.979-0.918c1.836-0.613,3.162-1.326,3.979-2.143
			l34.883-35.496c7.348-6.527,15.912-9.791,25.705-9.791c6.938,0,12.443,1.223,16.523,3.672h0.611l118.115,69.768
			C571.098,441.238,576.197,447.968,577.83,456.128z"/> </g> </g> </symbol><symbol viewBox="0 0 430.114 430.114" id="shape-icon-place"><title>icon-place</title> <g> <path d="M356.208,107.051c-1.531-5.738-4.64-11.852-6.94-17.205C321.746,23.704,261.611,0,213.055,0
		C148.054,0,76.463,43.586,66.905,133.427v18.355c0,0.766,0.264,7.647,0.639,11.089c5.358,42.816,39.143,88.32,64.375,131.136
		c27.146,45.873,55.314,90.999,83.221,136.106c17.208-29.436,34.354-59.259,51.17-87.933c4.583-8.415,9.903-16.825,14.491-24.857
		c3.058-5.348,8.9-10.696,11.569-15.672c27.145-49.699,70.838-99.782,70.838-149.104v-20.262
		C363.209,126.938,356.581,108.204,356.208,107.051z M214.245,199.193c-19.107,0-40.021-9.554-50.344-35.939
		c-1.538-4.2-1.414-12.617-1.414-13.388v-11.852c0-33.636,28.56-48.932,53.406-48.932c30.588,0,54.245,24.472,54.245,55.06
		C270.138,174.729,244.833,199.193,214.245,199.193z"/> </g> </symbol><symbol viewBox="0 0 255.226 255.226" id="shape-icon-quote"><title>icon-quote</title> <g> <g> <g> <g> <path d="M76.532,27.975l-7.405-5.244l-0.254-0.191l-0.477-0.191l-5.403-2.574l0.159,0.381
					c-5.117-2.098-10.488-3.591-16.336-3.591C20.945,16.565,0,38.336,0,65.192s20.976,48.627,46.816,48.627
					c8.295,0,15.955-2.415,22.724-6.356c-2.32,25.998-15.415,63.915-63.406,102.594c-6.706,5.403-7.946,15.446-2.733,22.407
					c3.051,4.1,7.596,6.198,12.173,6.198c3.305,0,6.611-1.112,9.439-3.337c58.893-47.547,73.608-96.364,75.579-128.973
					c3.369-41.699-9.28-63.629-20.849-75.07L76.532,27.975z"/> <path d="M233.76,31.28l-3.242-3.305l-7.374-5.244l-0.254-0.191l-0.509-0.191l-5.403-2.574l0.159,0.381
					c-5.117-2.098-10.52-3.591-16.368-3.591c-25.839,0-46.752,21.771-46.752,48.627s20.913,48.627,46.816,48.627
					c8.295,0,15.955-2.415,22.724-6.356c-2.288,25.998-15.383,63.915-63.374,102.594c-6.738,5.403-7.946,15.446-2.733,22.407
					c3.051,4.1,7.596,6.198,12.173,6.198c3.305,0,6.611-1.112,9.439-3.337c58.925-47.547,73.608-96.364,75.611-128.973
					C258.042,64.652,245.393,42.722,233.76,31.28z"/> </g> </g> </g> </g> </symbol><symbol viewBox="0 0 32 32" id="shape-icon-right"><title>icon-right</title> <g fill-rule="evenodd"> <path d="M7 30.584L8.416 32l16-16-16-16L7 1.416 21.584 16z"/> </g> </symbol><symbol viewBox="0 0 32 32" id="shape-icon-up"><title>icon-up</title> <g fill-rule="evenodd"> <path d="M1.416 24.416L0 23 16 7l16 16-1.416 1.416L16 9.832z"/> </g> </symbol></svg>